<mxfile host="app.diagrams.net" modified="2024-06-27T07:01:13.935Z" agent="Mozilla/5.0 (Windows NT 10.0; Win64; x64; rv:126.0) Gecko/20100101 Firefox/126.0" etag="oJFsHmwXmSatQL6UlaK6" version="24.6.2" type="github">
  <diagram id="R2lEEEUBdFMjLlhIrx00" name="Page-1">
    <mxGraphModel dx="2555" dy="1032" grid="1" gridSize="10" guides="1" tooltips="1" connect="1" arrows="1" fold="1" page="1" pageScale="1" pageWidth="850" pageHeight="1100" math="0" shadow="0" extFonts="Permanent Marker^https://fonts.googleapis.com/css?family=Permanent+Marker">
      <root>
        <mxCell id="0" />
        <mxCell id="1" parent="0" />
        <mxCell id="aEDTXyT5mWcR9VpWYu1Y-7" style="edgeStyle=orthogonalEdgeStyle;rounded=0;orthogonalLoop=1;jettySize=auto;html=1;exitX=0.5;exitY=1;exitDx=0;exitDy=0;entryX=0.5;entryY=0;entryDx=0;entryDy=0;strokeWidth=3;" edge="1" parent="1" source="QX0yu2BB7dJz-mTAqyrR-1" target="aEDTXyT5mWcR9VpWYu1Y-1">
          <mxGeometry relative="1" as="geometry" />
        </mxCell>
        <mxCell id="QX0yu2BB7dJz-mTAqyrR-1" value="&lt;div class=&quot;page&quot; title=&quot;Page 2&quot; style=&quot;caret-color: rgb(0, 0, 0); color: rgb(0, 0, 0); text-align: start; font-size: 18px;&quot;&gt;&lt;div style=&quot;font-size: 18px;&quot; class=&quot;layoutArea&quot;&gt;&lt;div style=&quot;font-size: 18px;&quot; class=&quot;column&quot;&gt;&lt;p style=&quot;font-size: 18px;&quot;&gt;&lt;span style=&quot;font-size: 18px;&quot;&gt;Which film has more than 5 actors and less than 3 in the inventory?&lt;/span&gt;&lt;/p&gt;&lt;/div&gt;&lt;/div&gt;&lt;/div&gt;" style="rounded=1;whiteSpace=wrap;html=1;fillColor=#d5e8d4;strokeColor=#82b366;fontFamily=Comic Sans MS;fontSize=18;" parent="1" vertex="1">
          <mxGeometry x="-218" y="40" width="740" height="60" as="geometry" />
        </mxCell>
        <mxCell id="QX0yu2BB7dJz-mTAqyrR-10" style="edgeStyle=orthogonalEdgeStyle;rounded=0;orthogonalLoop=1;jettySize=auto;html=1;exitX=0.5;exitY=1;exitDx=0;exitDy=0;strokeWidth=3;" parent="1" source="QX0yu2BB7dJz-mTAqyrR-16" target="QX0yu2BB7dJz-mTAqyrR-9" edge="1">
          <mxGeometry relative="1" as="geometry">
            <mxPoint x="-125" y="500" as="sourcePoint" />
          </mxGeometry>
        </mxCell>
        <mxCell id="QX0yu2BB7dJz-mTAqyrR-7" value="&lt;div style=&quot;caret-color: rgb(0, 0, 0); color: rgb(0, 0, 0); text-align: start; font-size: 19px;&quot; title=&quot;Page 2&quot; class=&quot;page&quot;&gt;&lt;div class=&quot;layoutArea&quot; style=&quot;font-size: 19px;&quot;&gt;&lt;div class=&quot;column&quot; style=&quot;font-size: 19px;&quot;&gt;&lt;div class=&quot;page&quot; title=&quot;Page 2&quot; style=&quot;font-size: 19px;&quot;&gt;&lt;div class=&quot;layoutArea&quot; style=&quot;font-size: 19px;&quot;&gt;&lt;div class=&quot;column&quot; style=&quot;font-size: 19px;&quot;&gt;&lt;p style=&quot;font-size: 19px;&quot;&gt;&lt;br&gt;&lt;/p&gt;&lt;/div&gt;&lt;/div&gt;&lt;/div&gt;&lt;/div&gt;&lt;/div&gt;&lt;/div&gt;" style="rounded=1;whiteSpace=wrap;html=1;fillColor=#fff2cc;strokeColor=#d6b656;fontFamily=Comic Sans MS;fontSize=19;" parent="1" vertex="1">
          <mxGeometry x="-230" y="832" width="760" height="107" as="geometry" />
        </mxCell>
        <mxCell id="QX0yu2BB7dJz-mTAqyrR-11" style="edgeStyle=orthogonalEdgeStyle;rounded=0;orthogonalLoop=1;jettySize=auto;html=1;exitX=0.5;exitY=1;exitDx=0;exitDy=0;entryX=0.5;entryY=0;entryDx=0;entryDy=0;strokeWidth=3;" parent="1" source="QX0yu2BB7dJz-mTAqyrR-17" target="QX0yu2BB7dJz-mTAqyrR-9" edge="1">
          <mxGeometry relative="1" as="geometry">
            <mxPoint x="160" y="510" as="targetPoint" />
            <mxPoint x="424.99999999999955" y="500" as="sourcePoint" />
          </mxGeometry>
        </mxCell>
        <mxCell id="QX0yu2BB7dJz-mTAqyrR-9" value="SQL Generation" style="rounded=1;whiteSpace=wrap;html=1;fillColor=#cce5ff;strokeColor=#36393d;fontFamily=Garamond;fontSize=24;fontStyle=1;" parent="1" vertex="1">
          <mxGeometry x="-46" y="600" width="400" height="60" as="geometry" />
        </mxCell>
        <mxCell id="QX0yu2BB7dJz-mTAqyrR-16" value="SQL-like Syntax Language" style="swimlane;whiteSpace=wrap;html=1;fillColor=#dae8fc;strokeColor=#6c8ebf;rounded=1;startSize=30;fontSize=18;strokeWidth=3;" parent="1" vertex="1">
          <mxGeometry x="-230" y="320" width="340" height="200" as="geometry" />
        </mxCell>
        <mxCell id="QX0yu2BB7dJz-mTAqyrR-19" value="&lt;font style=&quot;font-size: 18px;&quot;&gt;&lt;font style=&quot;font-size: 18px;&quot; color=&quot;#3399ff&quot;&gt;SELECT&lt;/font&gt;&lt;font style=&quot;font-size: 18px;&quot; color=&quot;#99ccff&quot;&gt; &lt;/font&gt;film.title&amp;nbsp;&lt;/font&gt;&lt;div style=&quot;font-size: 18px; line-height: 150%;&quot;&gt;&lt;font style=&quot;font-size: 18px;&quot;&gt;&lt;font style=&quot;font-size: 18px;&quot; color=&quot;#3399ff&quot;&gt;&lt;span style=&quot;font-size: 18px;&quot;&gt;WHERE count&lt;/span&gt;&lt;/font&gt;&lt;span style=&quot;font-size: 18px;&quot;&gt;(&lt;/span&gt;film_actor.*&lt;span style=&quot;font-size: 18px;&quot;&gt;) &amp;gt;&amp;nbsp;&lt;/span&gt;5&lt;/font&gt;&lt;/div&gt;&lt;div style=&quot;font-size: 18px; line-height: 150%;&quot;&gt;&lt;font style=&quot;font-size: 18px;&quot;&gt;&lt;font style=&quot;font-size: 18px;&quot; color=&quot;#3399ff&quot;&gt;&lt;span style=&quot;font-size: 18px;&quot;&gt;And count&lt;/span&gt;&lt;/font&gt;&lt;span style=&quot;font-size: 18px;&quot;&gt;(&lt;/span&gt;inventory.*&lt;span style=&quot;font-size: 18px;&quot;&gt;) &amp;lt;&amp;nbsp;&lt;/span&gt;3&lt;/font&gt;&lt;/div&gt;" style="text;html=1;align=left;verticalAlign=middle;whiteSpace=wrap;rounded=1;fontFamily=Comic Sans MS;fontSize=18;strokeWidth=3;" parent="QX0yu2BB7dJz-mTAqyrR-16" vertex="1">
          <mxGeometry x="10" y="30" width="320" height="170" as="geometry" />
        </mxCell>
        <mxCell id="QX0yu2BB7dJz-mTAqyrR-17" value="SQL-like Sketch Structure" style="swimlane;whiteSpace=wrap;html=1;fillColor=#dae8fc;strokeColor=#6c8ebf;rounded=1;startSize=30;fontSize=18;strokeWidth=3;" parent="1" vertex="1">
          <mxGeometry x="190" y="320" width="340" height="200" as="geometry" />
        </mxCell>
        <mxCell id="DOB1stPc7QMKQ5hxNXqe-1" value="" style="rounded=1;whiteSpace=wrap;html=1;dashed=1;arcSize=7;" parent="QX0yu2BB7dJz-mTAqyrR-17" vertex="1">
          <mxGeometry x="10" y="40" width="150" height="150" as="geometry" />
        </mxCell>
        <mxCell id="DOB1stPc7QMKQ5hxNXqe-2" value="" style="rounded=1;whiteSpace=wrap;html=1;dashed=1;arcSize=7;" parent="QX0yu2BB7dJz-mTAqyrR-17" vertex="1">
          <mxGeometry x="180" y="40" width="150" height="150" as="geometry" />
        </mxCell>
        <mxCell id="DOB1stPc7QMKQ5hxNXqe-3" value="&lt;div style=&quot;font-size: 14px;&quot;&gt;&lt;font color=&quot;#3399ff&quot;&gt;SELECT &lt;/font&gt;[column]&lt;br&gt;&lt;/div&gt;&lt;div style=&quot;font-size: 14px;&quot;&gt;&lt;font color=&quot;#3399ff&quot;&gt;FROM &lt;/font&gt;[table]&lt;/div&gt;&lt;div style=&quot;font-size: 14px;&quot;&gt;&lt;font color=&quot;#3399ff&quot;&gt;GROUP BY &lt;/font&gt;[column]&lt;/div&gt;&lt;div style=&quot;font-size: 14px;&quot;&gt;&lt;font color=&quot;#3399ff&quot;&gt;INTERSECT&lt;/font&gt;&lt;/div&gt;&lt;div style=&quot;font-size: 14px;&quot;&gt;(&lt;font color=&quot;#3399ff&quot;&gt;SELECT &lt;/font&gt;[column]&lt;/div&gt;&lt;div style=&quot;font-size: 14px;&quot;&gt;&lt;font color=&quot;#3399ff&quot;&gt;FROM &lt;/font&gt;[table]&lt;/div&gt;&lt;div style=&quot;font-size: 14px;&quot;&gt;&lt;font color=&quot;#3399ff&quot;&gt;GROUP BY&lt;/font&gt;&amp;nbsp;[column] )&lt;br style=&quot;font-size: 14px;&quot;&gt;&lt;/div&gt;" style="text;html=1;align=left;verticalAlign=middle;whiteSpace=wrap;rounded=1;fontSize=14;fontFamily=Comic Sans MS;" parent="QX0yu2BB7dJz-mTAqyrR-17" vertex="1">
          <mxGeometry x="20" y="40" width="140" height="150" as="geometry" />
        </mxCell>
        <mxCell id="DOB1stPc7QMKQ5hxNXqe-4" value="&lt;div style=&quot;font-size: 14px;&quot;&gt;[column] title &lt;font color=&quot;#3399ff&quot;&gt;&lt;/font&gt;&lt;/div&gt;&lt;div style=&quot;font-size: 14px;&quot;&gt;[table] film&lt;br&gt;&lt;/div&gt;&lt;div style=&quot;font-size: 14px;&quot;&gt;[column] film_id&amp;nbsp; &lt;/div&gt;&lt;div style=&quot;font-size: 14px;&quot;&gt;&lt;br&gt;&lt;/div&gt;&lt;div style=&quot;font-size: 14px;&quot;&gt;[column] title&lt;br&gt;&lt;/div&gt;&lt;div style=&quot;font-size: 14px;&quot;&gt;[table] film&lt;br&gt;&lt;/div&gt;&lt;div style=&quot;font-size: 14px;&quot;&gt;[column] film&lt;br style=&quot;font-size: 14px;&quot;&gt;&lt;/div&gt;" style="text;html=1;align=left;verticalAlign=middle;whiteSpace=wrap;rounded=1;fontSize=14;fontFamily=Comic Sans MS;" parent="QX0yu2BB7dJz-mTAqyrR-17" vertex="1">
          <mxGeometry x="190" y="40" width="140" height="150" as="geometry" />
        </mxCell>
        <mxCell id="QX0yu2BB7dJz-mTAqyrR-21" value="&lt;div style=&quot;font-size: 16px;&quot;&gt;&lt;font color=&quot;#3399ff&quot;&gt;SELECT &lt;/font&gt;T1.title &lt;font color=&quot;#3399ff&quot;&gt;FROM &lt;/font&gt;film &lt;font color=&quot;#3399ff&quot;&gt;AS &lt;/font&gt;T1 &lt;font color=&quot;#3399ff&quot;&gt;JOIN &lt;/font&gt;film_actor &lt;font color=&quot;#3399ff&quot;&gt;AS &lt;/font&gt;T2 &lt;font color=&quot;#3399ff&quot;&gt;ON &lt;/font&gt;T1.film_id = T2.film_id&amp;nbsp;&lt;/div&gt;&lt;div style=&quot;font-size: 16px;&quot;&gt;&lt;font color=&quot;#3399ff&quot;&gt;GROUP BY&lt;/font&gt; T1.film_id &lt;font color=&quot;#3399ff&quot;&gt;HAVING count&lt;/font&gt;(*) &amp;gt; 5&amp;nbsp;&lt;/div&gt;&lt;div style=&quot;font-size: 16px;&quot;&gt;&lt;font color=&quot;#3399ff&quot;&gt;INTERSECT SELECT&lt;/font&gt; T1.title &lt;font color=&quot;#3399ff&quot;&gt;FROM &lt;/font&gt;film &lt;font color=&quot;#3399ff&quot;&gt;AS &lt;/font&gt;T1 &lt;font color=&quot;#3399ff&quot;&gt;JOIN &lt;/font&gt;inventory &lt;font color=&quot;#3399ff&quot;&gt;AS &lt;/font&gt;T2 &lt;font color=&quot;#3399ff&quot;&gt;ON &lt;/font&gt;T1.film_id = T2.film_id&amp;nbsp;&lt;/div&gt;&lt;div style=&quot;font-size: 16px;&quot;&gt;&lt;font color=&quot;#3399ff&quot;&gt;GROUP BY &lt;/font&gt;T1.film_id &lt;font color=&quot;#3399ff&quot;&gt;HAVING count&lt;/font&gt;(*) &amp;lt; 3&lt;/div&gt;" style="text;html=1;align=left;verticalAlign=middle;whiteSpace=wrap;rounded=1;fontSize=16;fontFamily=Comic Sans MS;" parent="1" vertex="1">
          <mxGeometry x="-220" y="832" width="750" height="111.5" as="geometry" />
        </mxCell>
        <mxCell id="aEDTXyT5mWcR9VpWYu1Y-13" style="edgeStyle=orthogonalEdgeStyle;rounded=0;orthogonalLoop=1;jettySize=auto;html=1;exitX=0.5;exitY=1;exitDx=0;exitDy=0;entryX=0.5;entryY=0;entryDx=0;entryDy=0;strokeWidth=3;" edge="1" parent="1" source="aEDTXyT5mWcR9VpWYu1Y-1" target="aEDTXyT5mWcR9VpWYu1Y-9">
          <mxGeometry relative="1" as="geometry" />
        </mxCell>
        <mxCell id="aEDTXyT5mWcR9VpWYu1Y-1" value="Pre-Processing" style="rounded=1;whiteSpace=wrap;html=1;fillColor=#f9f7ed;strokeColor=#36393d;fontFamily=Garamond;fontSize=24;fontStyle=1;" vertex="1" parent="1">
          <mxGeometry x="-48" y="150" width="400" height="60" as="geometry" />
        </mxCell>
        <mxCell id="aEDTXyT5mWcR9VpWYu1Y-4" style="edgeStyle=orthogonalEdgeStyle;rounded=0;orthogonalLoop=1;jettySize=auto;html=1;exitX=0.5;exitY=1;exitDx=0;exitDy=0;entryX=0.5;entryY=0;entryDx=0;entryDy=0;strokeWidth=3;" edge="1" parent="1" source="aEDTXyT5mWcR9VpWYu1Y-2" target="QX0yu2BB7dJz-mTAqyrR-21">
          <mxGeometry relative="1" as="geometry" />
        </mxCell>
        <mxCell id="aEDTXyT5mWcR9VpWYu1Y-2" value="Post-Processing" style="rounded=1;whiteSpace=wrap;html=1;fillColor=#f9f7ed;strokeColor=#36393d;fontFamily=Garamond;fontSize=24;fontStyle=1;" vertex="1" parent="1">
          <mxGeometry x="-46" y="732" width="400" height="60" as="geometry" />
        </mxCell>
        <mxCell id="aEDTXyT5mWcR9VpWYu1Y-12" style="edgeStyle=orthogonalEdgeStyle;rounded=0;orthogonalLoop=1;jettySize=auto;html=1;exitX=0.5;exitY=1;exitDx=0;exitDy=0;strokeWidth=3;" edge="1" parent="1" source="aEDTXyT5mWcR9VpWYu1Y-9" target="aEDTXyT5mWcR9VpWYu1Y-2">
          <mxGeometry relative="1" as="geometry" />
        </mxCell>
        <mxCell id="aEDTXyT5mWcR9VpWYu1Y-9" value="NL2SQL Translation" style="swimlane;whiteSpace=wrap;html=1;fillColor=#f9f7ed;strokeColor=#36393d;rounded=1;startSize=40;fontSize=24;strokeWidth=1;" vertex="1" parent="1">
          <mxGeometry x="-257" y="260" width="820" height="420" as="geometry" />
        </mxCell>
      </root>
    </mxGraphModel>
  </diagram>
</mxfile>
